<?xml version="1.0" encoding="UTF-8"?>
<svg width="591px" height="282px" viewBox="0 0 591 282" version="1.1" xmlns="http://www.w3.org/2000/svg" xmlns:xlink="http://www.w3.org/1999/xlink">
    <defs></defs>
    <g id="Page-1" stroke="none" stroke-width="1" fill="none" fill-rule="evenodd">
        <g id="convertkit-stacked-inverted-copy" fill="#FFFFFF">
            <path d="M284.586,128.364 C315.099,128.364 338.684,105.376 338.684,77.019 C338.684,50.452 316.527,34.231 301.851,34.231 C281.415,34.231 265.035,48.531 262.701,69.761 C262.269,73.693 259.145,76.99 255.181,76.961 C248.591,76.915 239.011,76.859 232.945,76.879 C230.335,76.889 228.175,74.775 228.305,72.174 C229.22,53.761 235.393,36.545 247.166,23.32 C260.248,8.625 279.298,0 301.851,0 C339.744,0 375.517,34.334 375.517,77.019 C375.517,124.281 336.248,162.595 285.392,162.595 C249.124,162.595 212.596,138.959 199.842,105.916 C199.796474,105.793303 199.785745,105.660411 199.811,105.532 C199.981,104.555 200.317,103.661 200.65,102.782 C201.133,101.503 201.605,100.253 201.536,98.812 L201.316,94.21 C201.212583,91.9304585 202.500936,89.8156301 204.574,88.862 L206.418,88.006 C208.512527,87.0398318 210.007684,85.1170081 210.428,82.849 C211.046,79.473 214.018,77.019 217.486,77.019 C222.903,77.019 227.613,80.611 229.382,85.718 C237.898,110.298 251.437,128.364 284.586,128.364 Z" id="Shape" fill-rule="nonzero"></path>
            <path d="M533.186,206.685 C526.427,206.685 524.349,202.666 524.349,198.129 C524.349,193.333 526.037,189.573 533.186,189.573 C540.332,189.573 542.02,193.333 542.02,198.129 C542.02,202.666 540.202,206.685 533.186,206.685 Z M409.836,262.335 L409.836,229.018 L400.332,228.972 L400.332,225.093 C400.332,220.869 403.775,217.451 408.01,217.471 L409.836,217.481 L409.836,203.35 L425.04,199.072 L425.04,217.48 L438.815,217.48 L438.815,221.397 C438.815,225.606 435.395,229.018 431.175,229.018 L425.04,229.018 L425.04,260.391 C425.04,265.22 427.782,266.916 431.317,267.499 C435.481,268.186 438.944,271.192 438.944,275.402 L438.944,281.132 C424.548,281.132 409.836,280.499 409.836,262.335 Z" id="Shape" fill-rule="nonzero"></path>
            <path d="M109.898,216.044 C94.694,215.655 75.981,225.248 75.981,249.231 C75.981,272.825 94.694,282.159 109.898,281.771 C125.492,282.159 144.075,272.825 144.075,249.231 C144.075,225.248 125.492,215.655 109.898,216.044 Z M110.011,269.994 C98.965,269.994 91.128,261.966 91.128,248.744 C91.128,236.168 98.97,227.884 110.016,227.884 C121.061,227.884 128.815,236.152 128.815,248.726 C128.815,261.949 121.055,269.995 110.011,269.995 L110.011,269.994 Z" id="Shape"></path>
            <path d="M184.012,216.187 C197.267,216.187 211.042,219.817 211.042,245.744 L211.042,280.487 L202.568,280.487 C198.348,280.487 194.928,277.075 194.928,272.866 L194.928,244.448 C194.928,232.132 190.38,227.465 182.453,227.465 C178.034,227.465 172.318,230.835 169.588,233.558 L169.588,272.866 C169.588,277.075 166.168,280.487 161.948,280.487 L154.254,280.487 L154.254,217.742 L162.827,217.742 C165.868479,217.739411 168.509654,219.835437 169.198,222.798 C173.097,218.52 178.165,216.187 184.012,216.187 Z M228.42,217.631 C231.646118,217.629391 234.525552,219.654399 235.615,222.691 L249.529,261.578 L263.442,222.691 C264.53058,219.654178 267.409967,217.628921 270.636,217.631 L281.625,217.631 L258.965,275.526 C257.816147,278.453154 254.991533,280.377764 251.847,280.376 L242.122,280.376 L217.43,217.63 L228.419,217.63 L228.42,217.631 Z" id="Shape" fill-rule="nonzero"></path>
            <path d="M341.703,277.327 C336.895,279.272 327.141,281.862 317.006,281.862 C299.202,281.862 285.567,271.622 285.567,248.546 C285.567,227.804 298.784,216.714 314.899,216.714 C334.786,216.714 343.272,230.031 342.386,248.16 C342.202,251.906 338.935,254.638 335.176,254.638 L300.893,254.638 C301.673,264.75 309.078,270.065 318.823,270.065 C322.651,270.065 326.675,269.871 331.496,268.973 C336.61,268.02 341.703,271.649 341.703,276.839 L341.703,277.327 Z M328.623,244.008 C329.668,234.086 322.955,228.641 314.899,228.641 C306.842,228.641 301.409,234.674 300.893,244.008 L328.623,244.008 Z" id="Shape"></path>
            <path d="M362.636,217.762 C365.536762,217.759495 368.063309,219.740421 368.753,222.558 C373.951,218.668 380.45,216.206 384.996,216.206 C385.388,216.206 387.856,216.206 391.755,216.725 L391.755,223.452 C391.755,227.068 388.622,229.817 384.996,229.817 C380.84,229.817 374.73,231.374 369.922,234.096 L369.922,280.506 L354.46,280.506 L354.46,217.762 L362.637,217.762 L362.636,217.762 Z M540.981,272.698 L540.981,217.575 L533.288,217.575 C529.068,217.575 525.648,220.987 525.648,225.197 L525.648,280.319 L533.341,280.319 C537.561,280.319 540.981,276.907 540.981,272.698 Z M561.892,262.467 L561.892,229.15 L551.626,229.15 L551.626,225.234 C551.626,221.024 555.046,217.612 559.266,217.612 L561.892,217.612 L561.892,203.482 L577.095,199.204 L577.095,217.612 L590.87,217.612 L590.87,221.529 C590.87,225.738 587.45,229.15 583.23,229.15 L577.095,229.15 L577.095,260.523 C577.095,265.352 579.84,267.048 583.375,267.631 C587.536,268.318 591,271.324 591,275.534 L591,281.264 C576.604,281.264 561.892,280.631 561.892,262.467 Z M0,236.27 C0.097,206.933 22.273,190.54 43.554,190.54 C55.374,190.54 66.213,193.08 75.126,199.432 L71.52,204.368 C69.108,207.669 64.43,208.913 60.622,207.411 C55.246,205.291 50.182,204.842 46.409,204.842 C28.997,204.842 15.969,216.072 15.874,236.269 C15.968,256.466 29.004,267.511 46.417,267.511 C50.19,267.511 55.253,267.063 60.63,264.942 C64.438,263.44 69.108,264.87 71.52,268.172 L75.126,273.108 C66.213,279.459 55.374,282 43.554,282 C22.274,282 0.097,265.606 0,236.27 Z M457.797,190.999 C462.017,190.999 465.437,194.411 465.437,198.621 L465.437,233.563 L496.71,194.362 C498.151996,192.411379 500.434247,191.260976 502.86,191.262 L516.752,191.262 L481.394,235.799 L516.752,280.319001 L502.86,280.319 C500.434247,280.320024 498.151996,279.169621 496.71,277.219 L465.437,238.029 L465.437,272.698 C465.437,276.907 462.017,280.319 457.797,280.319 L449.711,280.319001 L449.711,191 L457.797,191 L457.797,190.999 Z" id="Shape" fill-rule="nonzero"></path>
        </g>
    </g>
</svg>
